<?xml version="1.0" standalone="no"?>
<!DOCTYPE svg PUBLIC "-//W3C//DTD SVG 20010904//EN"
 "http://www.w3.org/TR/2001/REC-SVG-20010904/DTD/svg10.dtd">
<svg version="1.0" xmlns="http://www.w3.org/2000/svg"
 width="103.000000pt" height="104.000000pt" viewBox="0 0 103.000000 104.000000"
 preserveAspectRatio="xMidYMid meet">

<g transform="translate(0.000000,104.000000) scale(0.100000,-0.100000)"
fill="#000000" stroke="none">
<path d="M145 958 c-3 -7 -4 -168 -3 -358 l3 -345 370 0 370 0 0 355 0 355
-368 3 c-290 2 -369 0 -372 -10z m675 -348 l0 -300 -305 0 -305 0 0 300 0 300
305 0 305 0 0 -300z"/>
<path d="M320 750 c-24 -24 -25 -48 -4 -78 19 -27 64 -29 87 -4 24 26 21 68
-5 86 -30 21 -54 20 -78 -4z"/>
<path d="M632 754 c-27 -19 -29 -64 -4 -87 26 -24 68 -21 86 5 21 30 20 54 -4
78 -24 24 -48 25 -78 4z"/>
<path d="M354 516 c-3 -8 -4 -25 -2 -38 3 -23 3 -23 163 -23 l160 0 0 35 0 35
-158 3 c-130 2 -158 0 -163 -12z"/>
<path d="M152 138 c-7 -7 -12 -25 -12 -40 l0 -28 373 2 372 3 3 23 c8 52 7 52
-372 52 -260 0 -355 -3 -364 -12z"/>
</g>
</svg>
